<?xml version="1.0" encoding="iso-8859-1"?>
<!-- Generator: Adobe Illustrator 19.0.0, SVG Export Plug-In . SVG Version: 6.00 Build 0)  -->
<svg version="1.1" id="Layer_1" xmlns="http://www.w3.org/2000/svg" xmlns:xlink="http://www.w3.org/1999/xlink" x="0px" y="0px"
	 viewBox="0 0 508 508" style="enable-background:new 0 0 508 508;" xml:space="preserve">
<circle style="fill:#FD8469;" cx="254" cy="254" r="254"/>
<path style="fill:#E6E9EE;" d="M233.6,507.1c6.7,0.5,13.5,0.9,20.4,0.9s13.6-0.4,20.4-0.9V330.9h-40.7v176.2H233.6z"/>
<circle style="fill:#FFD05B;" cx="254" cy="224.1" r="172"/>
<circle style="fill:#FFFFFF;" cx="254" cy="224.1" r="143.8"/>
<circle style="fill:#FFD05B;" cx="254" cy="224.1" r="129.2"/>
<g>
	<path style="fill:#FFFFFF;" d="M206.6,163.1v42.3h-11.7v-42.3h-14.8V153h41.4v10.1H206.6z"/>
	<path style="fill:#FFFFFF;" d="M263.4,205.4l-4.9-11.3h-22l-4.9,11.3h-12.4l22.6-52.4h11.3l22.6,52.4H263.4z M247.6,168.6
		l-6.6,15.2h13.1L247.6,168.6z"/>
	<path style="fill:#FFFFFF;" d="M311.4,153h14.1l-16.3,25.2l17.7,27.1h-14.2l-11.2-17.2l-11.1,17.2h-14.1l17.6-26.8L277.5,153h14
		l10,15.5L311.4,153z"/>
	<path style="fill:#FFFFFF;" d="M196,242.9v10.3h-24.3v11.3h23.1v10.3h-23.1v20.5H160v-52.4H196z"/>
	<path style="fill:#FFFFFF;" d="M248.4,260.3c0,8.4-3.3,13.8-10,16.3l13.3,18.7h-14.4l-11.6-16.7h-8.1v16.7h-11.7v-52.4h19.9
		c8.1,0,13.9,1.4,17.4,4.1C246.6,249.8,248.4,254.2,248.4,260.3z M234.3,266.5c1.5-1.3,2.2-3.4,2.2-6.2c0-2.8-0.7-4.8-2.2-5.8
		s-4.1-1.6-7.9-1.6h-8.8v15.5h8.5C230.1,268.5,232.8,267.8,234.3,266.5z"/>
	<path style="fill:#FFFFFF;" d="M298.1,242.9v10.4H272v10.8h23.5v10H272V285h27v10.3h-38.6v-52.4L298.1,242.9L298.1,242.9z"/>
	<path style="fill:#FFFFFF;" d="M347.1,242.9v10.4H321v10.8h23.5v10H321V285h27v10.3h-38.6v-52.4L347.1,242.9L347.1,242.9z"/>
</g>
<g>
</g>
<g>
</g>
<g>
</g>
<g>
</g>
<g>
</g>
<g>
</g>
<g>
</g>
<g>
</g>
<g>
</g>
<g>
</g>
<g>
</g>
<g>
</g>
<g>
</g>
<g>
</g>
<g>
</g>
</svg>
