<?xml version="1.0" encoding="utf-8"?>
<!-- Generator: Adobe Illustrator 21.0.0, SVG Export Plug-In . SVG Version: 6.00 Build 0)  -->
<svg version="1.1" id="Layer_1" xmlns="http://www.w3.org/2000/svg" xmlns:xlink="http://www.w3.org/1999/xlink" x="0px" y="0px"
	 viewBox="0 0 32 32" style="enable-background:new 0 0 32 32;" xml:space="preserve">
<style type="text/css">
	.st0{fill:#000000;}
</style>
<g id="surface1">
	<path class="st0" d="M16,3C8.8,3,3,8.8,3,16s5.8,13,13,13s13-5.8,13-13c0-1.4-0.2-2.8-0.7-4.1l-1.6,1.6c0.2,0.8,0.3,1.6,0.3,2.5
		c0,6.1-4.9,11-11,11S5,22.1,5,16S9.9,5,16,5c3,0,5.7,1.2,7.6,3.1L25,6.7C22.7,4.4,19.5,3,16,3z M27.3,7.3L16,18.6l-4.3-4.3
		l-1.4,1.4l5,5l0.7,0.7l0.7-0.7l12-12L27.3,7.3z"/>
</g>
</svg>
