<svg id="Layer_1" data-name="Layer 1" xmlns="http://www.w3.org/2000/svg" viewBox="0 0 297 297"><defs><style>.cls-1{fill:#9adad9;}.cls-2{fill:#80c4c0;}.cls-3{fill:#32373b;}.cls-4{fill:#d0d5d9;}</style></defs><circle class="cls-1" cx="148.5" cy="148.5" r="148.5"/><path class="cls-2" d="M291.55,108.51,219.42,36.38,77.73,244.26l51.5,51.5A148.61,148.61,0,0,0,291.55,108.51Z"/><path class="cls-3" d="M85.71,247.5H211.29A11.46,11.46,0,0,0,222.75,236V44.46A11.46,11.46,0,0,0,211.29,33H85.71A11.46,11.46,0,0,0,74.25,44.46V236A11.46,11.46,0,0,0,85.71,247.5Z"/><rect class="cls-4" x="82.5" y="46" width="132" height="179"/><circle cx="148.5" cy="235.5" r="6.5"/><path d="M170.47,132.44c.12,11.06,10.69,14.74,10.81,14.78a38.45,38.45,0,0,1-5.57,10.4c-3.36,4.45-6.84,8.88-12.33,9s-7.12-2.9-13.29-2.9-8.08,2.81-13.19,3c-5.29.19-9.32-4.81-12.71-9.24-6.91-9.07-12.2-25.64-5.1-36.82a20.06,20.06,0,0,1,16.66-9.15c5.2-.09,10.11,3.17,13.29,3.17s9.14-3.93,15.41-3.35c2.62.1,10,1,14.72,7.25-.38.21-8.79,4.66-8.7,13.9m-10.13-27.15c2.81-3.09,4.7-7.39,4.19-11.67a18.74,18.74,0,0,0-11.86,5.54c-2.61,2.73-4.89,7.11-4.27,11.3,4.51.32,9.13-2.08,11.94-5.17"/></svg>