<?xml version="1.0" encoding="iso-8859-1"?>
<!-- Generator: Adobe Illustrator 19.0.0, SVG Export Plug-In . SVG Version: 6.00 Build 0)  -->
<svg version="1.1" id="Layer_1" xmlns="http://www.w3.org/2000/svg" xmlns:xlink="http://www.w3.org/1999/xlink" x="0px" y="0px"
	 viewBox="0 0 512 512" style="enable-background:new 0 0 512 512;" xml:space="preserve">
<circle style="fill:#45B39C;" cx="256" cy="256" r="256"/>
<path style="opacity:0.1;enable-background:new    ;" d="M511.989,256.395L364.928,109.333H147.072v21.339l7.781,7.781v4.443
	c-3.2-1.067-6.608-1.669-10.155-1.669c-8.933,0-17.589,3.696-23.739,10.144c-5.845,6.117-8.848,14.021-8.464,22.245
	c0.64,13.84,7.243,26.587,16.117,37.205l-0.048-0.005l0.272,0.267c3.685,4.373,7.728,8.389,11.941,11.941l82.496,82.496
	c0.512,1.285,1.275,2.443,2.208,3.435h-0.011l6.965,6.965v8.235h-9.429c-8.773,0-15.888,7.115-15.888,15.888h-3.589
	c-4.235,0-7.675,3.435-7.675,7.675v49.461h-0.56c-1.515,0-2.741,1.227-2.741,2.741c0,0.784,0.341,1.483,0.869,1.984l0,0
	l106.293,106.293C420.139,487.472,511.797,382.688,511.989,256.395z"/>
<g>
	<path style="fill:#DC8744;" d="M335.611,240.821c-3.024,0-5.557-1.184-7.323-3.424c-5.275-6.688-2.373-20.949,2.651-41.941
		c2.139-8.939,4.16-17.376,4.16-22.021c0-17.76,14.448-32.208,32.203-32.208c8.933,0,17.589,3.696,23.739,10.144
		c5.845,6.117,8.848,14.021,8.464,22.245l0,0C397.776,211.019,352.747,240.821,335.611,240.821z M367.301,149.227
		c-13.344,0-24.203,10.859-24.203,24.208c0,5.589-2.032,14.069-4.379,23.888c-2.779,11.589-7.419,30.987-4.149,35.125
		c0.128,0.165,0.299,0.373,1.04,0.373c13.019,0,54.389-26.8,55.904-59.568v-0.005c0.283-6.021-1.941-11.829-6.261-16.347
		C380.603,152.021,374.059,149.227,367.301,149.227z"/>
	<path style="fill:#DC8744;" d="M112.496,173.616L112.496,173.616c-0.384-8.224,2.619-16.128,8.464-22.245
		c6.149-6.448,14.805-10.144,23.739-10.144c17.755,0,32.203,14.448,32.203,32.208c0,4.645,2.021,13.083,4.16,22.021
		c5.024,20.997,7.925,35.253,2.651,41.941c-1.765,2.24-4.299,3.424-7.323,3.424C159.253,240.821,114.224,211.019,112.496,173.616z
		 M126.747,156.896c-4.32,4.523-6.544,10.325-6.261,16.347v0.005c1.515,32.768,42.885,59.568,55.909,59.568
		c0.747,0,0.912-0.208,1.04-0.373c3.264-4.139-1.376-23.536-4.149-35.125c-2.347-9.819-4.379-18.299-4.379-23.888
		c0-13.349-10.859-24.208-24.203-24.208C137.941,149.227,131.397,152.021,126.747,156.896z"/>
</g>
<rect x="147.072" y="109.333" style="fill:#F6C358;" width="217.856" height="21.333"/>
<path style="fill:#FCD462;" d="M154.853,130.672v53.872c0,43.712,27.739,80.928,66.571,95.051
	c6.629,2.411,11.013,8.741,11.013,15.792v28.779h47.125v-28.779c0-7.056,4.384-13.381,11.013-15.792
	c38.832-14.123,66.571-51.339,66.571-95.051v-53.872H154.853z"/>
<g>
	<path style="fill:#F6C358;" d="M278.48,290.443h-44.965c-6.091,0-11.024,4.939-11.024,11.024c0,6.091,4.939,11.024,11.024,11.024
		h44.965c6.091,0,11.024-4.933,11.024-11.024C289.504,295.376,284.571,290.443,278.48,290.443z"/>
	<path style="fill:#F6C358;" d="M288.992,324.16h-65.984c-8.773,0-15.888,7.115-15.888,15.888h97.76
		C304.88,331.275,297.765,324.16,288.992,324.16z"/>
</g>
<path style="fill:#64798A;" d="M316.139,402.667H195.861v-54.944c0-4.24,3.435-7.675,7.675-7.675h104.933
	c4.235,0,7.675,3.435,7.675,7.675v54.944H316.139z"/>
<path style="fill:#3A556A;" d="M316.699,402.667H195.301c-1.515,0-2.741-1.227-2.741-2.741l0,0c0-1.515,1.227-2.741,2.741-2.741
	h121.397c1.515,0,2.741,1.227,2.741,2.741l0,0C319.44,401.44,318.213,402.667,316.699,402.667z"/>
<g>
</g>
<g>
</g>
<g>
</g>
<g>
</g>
<g>
</g>
<g>
</g>
<g>
</g>
<g>
</g>
<g>
</g>
<g>
</g>
<g>
</g>
<g>
</g>
<g>
</g>
<g>
</g>
<g>
</g>
</svg>
