<?xml version="1.0" encoding="iso-8859-1"?>
<!-- Generator: Adobe Illustrator 19.0.0, SVG Export Plug-In . SVG Version: 6.00 Build 0)  -->
<svg version="1.1" id="Layer_1" xmlns="http://www.w3.org/2000/svg" xmlns:xlink="http://www.w3.org/1999/xlink" x="0px" y="0px"
	 viewBox="0 0 496.159 496.159" style="enable-background:new 0 0 496.159 496.159;" xml:space="preserve">
<g>
	<path style="fill:#45A445;" d="M248.082,0.004C111.07,0.004,0,111.063,0,248.086c0,137.001,111.07,248.07,248.082,248.07
		c137.006,0,248.076-111.069,248.076-248.07C496.158,111.063,385.088,0.004,248.082,0.004z"/>
	<path style="fill:#45A445;" d="M248.082,0.004C111.07,0.004,0,111.063,0,248.086c0,26.672,4.227,52.353,12.018,76.431
		c56.514,67.326,141.284,110.141,236.065,110.141c94.776,0,179.544-42.814,236.057-110.14c7.792-24.078,12.019-49.76,12.019-76.432
		C496.158,111.063,385.088,0.004,248.082,0.004z"/>
</g>
<path style="fill:#F4F4F4;" d="M282.06,148.111l-28.529-0.05c-1.892-0.004-3.427,1.527-3.43,3.418l-0.076,43.364
	c-0.003,1.89,1.527,3.425,3.418,3.429l28.528,0.05c1.892,0.003,3.427-1.528,3.43-3.418l0.075-43.364
	C285.48,149.648,283.951,148.115,282.06,148.111z"/>
<g>
	<path style="fill:#D61E1E;" d="M256.889,154.356c-0.113-0.104-0.258-0.354-0.433-0.751l-1.835-4.196h-0.072l-1.836,4.077
		c-0.174,0.39-0.32,0.646-0.439,0.77c-0.118,0.125-0.269,0.2-0.453,0.228l-0.001,0.139l1.702,0.003v-0.139
		c-0.267-0.021-0.434-0.051-0.502-0.092c-0.115-0.068-0.173-0.173-0.173-0.315c0-0.109,0.037-0.246,0.106-0.413l0.217-0.497
		l1.806,0.003l0.271,0.637c0.069,0.166,0.107,0.261,0.111,0.283c0.016,0.048,0.023,0.094,0.023,0.141
		c0,0.074-0.028,0.132-0.083,0.172c-0.082,0.056-0.22,0.083-0.418,0.083h-0.102v0.141l2.473,0.003l0.001-0.139
		C257.095,154.48,256.975,154.434,256.889,154.356z M253.302,152.891l0.789-1.759l0.758,1.761L253.302,152.891z"/>
	<path style="fill:#D61E1E;" d="M256.364,156.507c0,0-1.037-0.925-1.688,0.708c-0.644-1.635-1.685-0.714-1.685-0.714
		c-1.358,1.151,1.549,3.637,1.677,3.747v0.004c0,0,0.001-0.001,0.003-0.002c0.001,0.001,0.002,0.002,0.002,0.002v-0.004
		C254.803,160.139,257.72,157.662,256.364,156.507z"/>
	<path style="fill:#D61E1E;" d="M281.953,191.301v0.139c0.266,0.021,0.433,0.051,0.5,0.092c0.115,0.068,0.172,0.173,0.173,0.316
		c0,0.108-0.035,0.245-0.106,0.411l-0.216,0.497l-1.807-0.003l-0.27-0.637c-0.07-0.167-0.108-0.26-0.112-0.283
		c-0.016-0.047-0.023-0.094-0.023-0.14c0.001-0.075,0.029-0.133,0.084-0.173c0.08-0.055,0.22-0.082,0.419-0.083h0.102v-0.139
		l-2.474-0.004v0.14c0.156,0.012,0.276,0.058,0.362,0.136c0.112,0.103,0.256,0.353,0.432,0.75l1.836,4.194l0.072,0.001l1.836-4.077
		c0.174-0.389,0.32-0.647,0.439-0.77c0.117-0.123,0.269-0.202,0.452-0.228v-0.138L281.953,191.301z M281.385,194.796l-0.758-1.763
		l1.545,0.002L281.385,194.796z"/>
	<path style="fill:#D61E1E;" d="M280.879,185.55v-0.003c0,0-0.001,0.001-0.002,0.002c-0.001-0.001-0.003-0.002-0.003-0.002v0.003
		c-0.128,0.11-3.045,2.586-1.689,3.742c0,0,1.037,0.923,1.687-0.708c0.646,1.634,1.685,0.713,1.685,0.713
		C283.914,188.146,281.008,185.66,280.879,185.55z"/>
	<path style="fill:#D61E1E;" d="M275.827,164.868c0,0-4.957-4.42-8.067,3.385c-3.083-7.816-8.053-3.414-8.053-3.414
		c-6.499,5.504,7.4,17.388,8.016,17.91v0.02c0,0,0.004-0.004,0.013-0.009c0.007,0.005,0.011,0.009,0.011,0.009v-0.02
		C268.365,182.229,282.306,170.395,275.827,164.868z"/>
</g>
<path style="fill:#F4F4F4;" d="M242.715,148.24l-28.528-0.051c-1.892-0.003-3.428,1.527-3.431,3.418l-0.075,43.365
	c-0.003,1.89,1.526,3.425,3.417,3.429l28.529,0.05c1.891,0.003,3.426-1.528,3.429-3.418l0.076-43.364
	C246.136,149.779,244.606,148.243,242.715,148.24z"/>
<rect x="212.789" y="151.049" style="fill:#AA0404;" width="31.06" height="44.39"/>
<rect x="214.889" y="153.199" style="fill:#F4F4F4;" width="26.858" height="40.1"/>
<g>
	
		<rect x="215.558" y="153.658" transform="matrix(-0.7074 0.7068 -0.7068 -0.7074 480.463 111.5795)" style="fill:#AA0404;" width="3.157" height="3.159"/>
	
		<rect x="220.023" y="153.649" transform="matrix(-0.7073 0.7069 -0.7069 -0.7073 488.0738 108.3704)" style="fill:#AA0404;" width="3.157" height="3.158"/>
	
		<rect x="224.504" y="153.652" transform="matrix(-0.7073 0.7069 -0.7069 -0.7073 495.7259 105.2083)" style="fill:#AA0404;" width="3.157" height="3.158"/>
	
		<rect x="228.984" y="153.655" transform="matrix(-0.7074 0.7068 -0.7068 -0.7074 503.3857 102.0857)" style="fill:#AA0404;" width="3.157" height="3.159"/>
	
		<rect x="233.452" y="153.646" transform="matrix(-0.7073 0.7069 -0.7069 -0.7073 510.9987 98.8711)" style="fill:#AA0404;" width="3.157" height="3.158"/>
	
		<rect x="237.932" y="153.649" transform="matrix(-0.7073 0.7069 -0.7069 -0.7073 518.6491 95.7096)" style="fill:#AA0404;" width="3.157" height="3.158"/>
	
		<rect x="215.574" y="158.159" transform="matrix(-0.7073 0.707 -0.707 -0.7073 483.6641 119.1959)" style="fill:#AA0404;" width="3.158" height="3.158"/>
	
		<rect x="220.028" y="158.172" transform="matrix(-0.7072 0.707 -0.707 -0.7072 491.2725 116.0509)" style="fill:#AA0404;" width="3.157" height="3.157"/>
	
		<rect x="224.506" y="158.175" transform="matrix(-0.7072 0.707 -0.707 -0.7072 498.9196 112.8892)" style="fill:#AA0404;" width="3.157" height="3.157"/>
	
		<rect x="228.996" y="158.161" transform="matrix(-0.7073 0.707 -0.707 -0.7073 506.5803 109.7106)" style="fill:#AA0404;" width="3.158" height="3.158"/>
	
		<rect x="233.455" y="158.177" transform="matrix(-0.7072 0.707 -0.707 -0.7072 514.1999 106.5659)" style="fill:#AA0404;" width="3.157" height="3.157"/>
	
		<rect x="237.934" y="158.17" transform="matrix(-0.7072 0.707 -0.707 -0.7072 521.84 103.3872)" style="fill:#AA0404;" width="3.157" height="3.157"/>
	
		<rect x="215.574" y="162.652" transform="matrix(-0.7073 0.707 -0.707 -0.7073 486.8394 126.8667)" style="fill:#AA0404;" width="3.158" height="3.158"/>
	
		<rect x="220.029" y="162.675" transform="matrix(-0.7072 0.707 -0.707 -0.7072 494.4583 123.7363)" style="fill:#AA0404;" width="3.157" height="3.157"/>
	
		<rect x="224.507" y="162.668" transform="matrix(-0.7072 0.707 -0.707 -0.7072 502.0984 120.5576)" style="fill:#AA0404;" width="3.157" height="3.157"/>
	
		<rect x="228.996" y="162.654" transform="matrix(-0.7073 0.707 -0.707 -0.7073 509.7557 117.3815)" style="fill:#AA0404;" width="3.158" height="3.158"/>
	
		<rect x="233.457" y="162.67" transform="matrix(-0.7072 0.707 -0.707 -0.7072 517.3786 114.2343)" style="fill:#AA0404;" width="3.157" height="3.157"/>
	
		<rect x="237.935" y="162.672" transform="matrix(-0.7072 0.707 -0.707 -0.7072 525.0258 111.0726)" style="fill:#AA0404;" width="3.157" height="3.157"/>
	
		<rect x="215.555" y="167.148" transform="matrix(-0.7073 0.7069 -0.7069 -0.7073 489.9868 134.5751)" style="fill:#AA0404;" width="3.157" height="3.158"/>
	
		<rect x="220.043" y="167.155" transform="matrix(-0.7073 0.707 -0.707 -0.7073 497.653 131.394)" style="fill:#AA0404;" width="3.157" height="3.157"/>
	
		<rect x="224.522" y="167.157" transform="matrix(-0.7073 0.707 -0.707 -0.7073 505.3012 128.2323)" style="fill:#AA0404;" width="3.157" height="3.157"/>
	
		<rect x="228.984" y="167.144" transform="matrix(-0.7073 0.7069 -0.7069 -0.7073 512.9117 125.0758)" style="fill:#AA0404;" width="3.157" height="3.158"/>
	
		<rect x="233.476" y="167.16" transform="matrix(-0.7073 0.707 -0.707 -0.7073 520.5885 121.9067)" style="fill:#AA0404;" width="3.157" height="3.157"/>
	
		<rect x="237.951" y="167.152" transform="matrix(-0.7073 0.707 -0.707 -0.7073 528.2245 118.73)" style="fill:#AA0404;" width="3.157" height="3.157"/>
	
		<rect x="215.563" y="171.666" transform="matrix(-0.7071 0.7071 -0.7071 -0.7071 493.1881 142.2032)" style="fill:#AA0404;" width="3.159" height="3.157"/>
	
		<rect x="220.028" y="171.664" transform="matrix(-0.707 0.7072 -0.7072 -0.707 500.8037 139.0043)" style="fill:#AA0404;" width="3.158" height="3.157"/>
	
		<rect x="224.507" y="171.656" transform="matrix(-0.707 0.7072 -0.7072 -0.707 508.4425 135.8231)" style="fill:#AA0404;" width="3.158" height="3.157"/>
	
		<rect x="228.983" y="171.666" transform="matrix(-0.7071 0.7071 -0.7071 -0.7071 516.0967 132.7155)" style="fill:#AA0404;" width="3.159" height="3.157"/>
	
		<rect x="233.459" y="171.667" transform="matrix(-0.707 0.7072 -0.7072 -0.707 523.7322 129.5097)" style="fill:#AA0404;" width="3.158" height="3.157"/>
	
		<rect x="237.937" y="171.658" transform="matrix(-0.707 0.7072 -0.7072 -0.707 531.3692 126.3292)" style="fill:#AA0404;" width="3.158" height="3.157"/>
	
		<rect x="215.554" y="176.15" transform="matrix(-0.7073 0.7069 -0.7069 -0.7073 496.3495 149.9462)" style="fill:#AA0404;" width="3.157" height="3.158"/>
	
		<rect x="220.054" y="176.167" transform="matrix(-0.7073 0.707 -0.707 -0.7073 504.0427 146.7744)" style="fill:#AA0404;" width="3.157" height="3.158"/>
	
		<rect x="224.53" y="176.17" transform="matrix(-0.7073 0.707 -0.707 -0.7073 511.6857 143.6147)" style="fill:#AA0404;" width="3.157" height="3.158"/>
	
		<rect x="228.983" y="176.147" transform="matrix(-0.7073 0.7069 -0.7069 -0.7073 519.2744 140.4469)" style="fill:#AA0404;" width="3.157" height="3.158"/>
	
		<rect x="233.483" y="176.162" transform="matrix(-0.7073 0.707 -0.707 -0.7073 526.966 137.2721)" style="fill:#AA0404;" width="3.157" height="3.158"/>
	
		<rect x="237.959" y="176.165" transform="matrix(-0.7073 0.707 -0.707 -0.7073 534.609 134.1124)" style="fill:#AA0404;" width="3.157" height="3.158"/>
	
		<rect x="215.574" y="180.66" transform="matrix(-0.7073 0.707 -0.707 -0.7073 499.5716 157.6121)" style="fill:#AA0404;" width="3.158" height="3.159"/>
	
		<rect x="220.033" y="180.681" transform="matrix(-0.7072 0.707 -0.707 -0.7072 507.1952 154.4756)" style="fill:#AA0404;" width="3.157" height="3.158"/>
	
		<rect x="224.509" y="180.684" transform="matrix(-0.7072 0.707 -0.707 -0.7072 514.8389 151.3154)" style="fill:#AA0404;" width="3.157" height="3.158"/>
	
		<rect x="228.996" y="180.672" transform="matrix(-0.7073 0.707 -0.707 -0.7073 522.4949 148.1439)" style="fill:#AA0404;" width="3.158" height="3.159"/>
	
		<rect x="233.46" y="180.686" transform="matrix(-0.7072 0.707 -0.707 -0.7072 530.1226 144.9907)" style="fill:#AA0404;" width="3.157" height="3.158"/>
	
		<rect x="237.939" y="180.679" transform="matrix(-0.7072 0.707 -0.707 -0.7072 537.7627 141.812)" style="fill:#AA0404;" width="3.157" height="3.158"/>
	
		<rect x="215.552" y="185.174" transform="matrix(-0.7072 0.707 -0.707 -0.7072 502.7233 165.3115)" style="fill:#AA0404;" width="3.158" height="3.157"/>
	
		<rect x="220.03" y="185.171" transform="matrix(-0.7071 0.7071 -0.7071 -0.7071 510.3622 162.1003)" style="fill:#AA0404;" width="3.158" height="3.157"/>
	
		<rect x="224.508" y="185.173" transform="matrix(-0.7071 0.7071 -0.7071 -0.7071 518.0079 158.9378)" style="fill:#AA0404;" width="3.158" height="3.157"/>
	
		<rect x="228.979" y="185.186" transform="matrix(-0.7072 0.707 -0.707 -0.7072 525.6539 155.8394)" style="fill:#AA0404;" width="3.158" height="3.157"/>
	
		<rect x="233.456" y="185.175" transform="matrix(-0.7071 0.7071 -0.7071 -0.7071 533.285 152.6127)" style="fill:#AA0404;" width="3.158" height="3.157"/>
	
		<rect x="237.934" y="185.167" transform="matrix(-0.7071 0.7071 -0.7071 -0.7071 540.9236 149.433)" style="fill:#AA0404;" width="3.158" height="3.157"/>
	
		<rect x="215.576" y="189.666" transform="matrix(-0.7073 0.707 -0.707 -0.7073 505.9409 172.9854)" style="fill:#AA0404;" width="3.158" height="3.158"/>
	
		<rect x="220.025" y="189.676" transform="matrix(-0.7072 0.707 -0.707 -0.7072 513.5417 169.8362)" style="fill:#AA0404;" width="3.157" height="3.157"/>
	
		<rect x="224.503" y="189.679" transform="matrix(-0.7072 0.707 -0.707 -0.7072 521.189 166.6746)" style="fill:#AA0404;" width="3.157" height="3.157"/>
	
		<rect x="228.999" y="189.668" transform="matrix(-0.7073 0.707 -0.707 -0.7073 528.8588 163.4994)" style="fill:#AA0404;" width="3.158" height="3.158"/>
	
		<rect x="233.453" y="189.681" transform="matrix(-0.7072 0.707 -0.707 -0.7072 536.4692 160.3512)" style="fill:#AA0404;" width="3.157" height="3.157"/>
	
		<rect x="237.931" y="189.674" transform="matrix(-0.7072 0.707 -0.707 -0.7072 544.1093 157.1725)" style="fill:#AA0404;" width="3.157" height="3.157"/>
</g>
<path style="fill:#A56C42;" d="M248.082,0.004c-80.791,0-152.551,38.625-197.849,98.409h395.691
	C400.628,38.628,328.87,0.004,248.082,0.004z"/>
<circle style="fill:#7597DB;" cx="166.949" cy="61.29" r="11.478"/>
<circle style="fill:#FFFFFF;" cx="166.949" cy="61.29" r="7.875"/>
<circle style="fill:#7597DB;" cx="166.949" cy="61.29" r="7.251"/>
<g>
	<path style="fill:#F0F2F2;" d="M166.952,49.808c-0.728,0-1.439,0.068-2.128,0.197v2.836h4.255v-2.836
		C168.39,49.876,167.679,49.808,166.952,49.808z"/>
	<path style="fill:#F0F2F2;" d="M164.823,69.684v2.883c0.689,0.129,1.4,0.197,2.128,0.197c0.727,0,1.438-0.068,2.128-0.197v-2.883
		H164.823z"/>
	<path style="fill:#F0F2F2;" d="M175.471,53.594l-2.429,1.477l2.211,3.638l2.438-1.481
		C177.179,55.876,176.422,54.647,175.471,53.594z"/>
	<path style="fill:#F0F2F2;" d="M158.649,63.817l-2.452,1.49c0.506,1.353,1.26,2.584,2.207,3.64l2.456-1.492L158.649,63.817z"/>
	<path style="fill:#F0F2F2;" d="M175.258,63.799l-2.202,3.642l2.458,1.487c0.945-1.058,1.696-2.291,2.199-3.645L175.258,63.799z"/>
	<path style="fill:#F0F2F2;" d="M158.414,53.614c-0.948,1.054-1.703,2.285-2.211,3.637l2.441,1.476l2.203-3.642L158.414,53.614z"/>
</g>
<circle style="fill:#D61E1E;" cx="194.439" cy="61.29" r="11.478"/>
<circle style="fill:#FFFFFF;" cx="194.439" cy="61.29" r="7.875"/>
<circle style="fill:#D61E1E;" cx="194.439" cy="61.29" r="7.251"/>
<g>
	<path style="fill:#F0F2F2;" d="M194.439,49.808c-0.728,0-1.439,0.068-2.129,0.197v2.836h4.256v-2.836
		C195.877,49.876,195.166,49.808,194.439,49.808z"/>
	<path style="fill:#F0F2F2;" d="M192.31,69.684v2.883c0.69,0.129,1.401,0.197,2.129,0.197c0.727,0,1.438-0.068,2.127-0.197v-2.883
		H192.31z"/>
	<path style="fill:#F0F2F2;" d="M202.958,53.594l-2.429,1.477l2.211,3.638l2.438-1.481
		C204.666,55.876,203.909,54.647,202.958,53.594z"/>
	<path style="fill:#F0F2F2;" d="M186.137,63.817l-2.452,1.49c0.507,1.353,1.261,2.584,2.207,3.64l2.456-1.492L186.137,63.817z"/>
	<path style="fill:#F0F2F2;" d="M202.746,63.799l-2.203,3.642l2.459,1.487c0.944-1.058,1.696-2.291,2.199-3.645L202.746,63.799z"/>
	<path style="fill:#F0F2F2;" d="M185.901,53.614c-0.948,1.054-1.703,2.285-2.211,3.637l2.441,1.476l2.202-3.642L185.901,53.614z"/>
</g>
<circle style="fill:#3E60B5;" cx="221.929" cy="61.29" r="11.478"/>
<circle style="fill:#FFFFFF;" cx="221.919" cy="61.29" r="7.875"/>
<circle style="fill:#3E60B5;" cx="221.919" cy="61.29" r="7.251"/>
<g>
	<path style="fill:#F0F2F2;" d="M221.925,49.808c-0.728,0-1.439,0.068-2.128,0.197v2.836h4.256v-2.836
		C223.363,49.876,222.652,49.808,221.925,49.808z"/>
	<path style="fill:#F0F2F2;" d="M219.796,69.684v2.883c0.689,0.129,1.401,0.197,2.128,0.197s1.438-0.068,2.128-0.197v-2.883H219.796
		z"/>
	<path style="fill:#F0F2F2;" d="M230.444,53.594l-2.429,1.477l2.21,3.638l2.438-1.481C232.152,55.876,231.395,54.647,230.444,53.594
		z"/>
	<path style="fill:#F0F2F2;" d="M213.622,63.817l-2.452,1.49c0.506,1.353,1.26,2.584,2.207,3.64l2.456-1.492L213.622,63.817z"/>
	<path style="fill:#F0F2F2;" d="M230.231,63.799l-2.202,3.642l2.458,1.487c0.945-1.058,1.697-2.291,2.199-3.645L230.231,63.799z"/>
	<path style="fill:#F0F2F2;" d="M213.387,53.614c-0.948,1.054-1.703,2.285-2.211,3.637l2.441,1.476l2.203-3.642L213.387,53.614z"/>
</g>
<circle style="fill:#CCAA05;" cx="249.409" cy="61.29" r="11.478"/>
<circle style="fill:#FFFFFF;" cx="249.409" cy="61.29" r="7.875"/>
<circle style="fill:#CCAA05;" cx="249.409" cy="61.29" r="7.251"/>
<g>
	<path style="fill:#F0F2F2;" d="M249.412,49.808c-0.728,0-1.439,0.068-2.129,0.197v2.836h4.256v-2.836
		C250.85,49.876,250.139,49.808,249.412,49.808z"/>
	<path style="fill:#F0F2F2;" d="M247.283,69.684v2.883c0.69,0.129,1.401,0.197,2.129,0.197c0.727,0,1.438-0.068,2.127-0.197v-2.883
		H247.283z"/>
	<path style="fill:#F0F2F2;" d="M257.932,53.594l-2.429,1.477l2.211,3.638l2.438-1.481C259.64,55.876,258.882,54.647,257.932,53.594
		z"/>
	<path style="fill:#F0F2F2;" d="M241.11,63.817l-2.452,1.49c0.507,1.353,1.26,2.584,2.208,3.64l2.455-1.492L241.11,63.817z"/>
	<path style="fill:#F0F2F2;" d="M257.719,63.799l-2.203,3.642l2.459,1.487c0.945-1.058,1.696-2.291,2.199-3.645L257.719,63.799z"/>
	<path style="fill:#F0F2F2;" d="M240.874,53.614c-0.948,1.054-1.703,2.285-2.211,3.637l2.441,1.476l2.202-3.642L240.874,53.614z"/>
</g>
<circle style="fill:#B23FA7;" cx="275.819" cy="61.29" r="11.478"/>
<circle style="fill:#FFFFFF;" cx="275.809" cy="61.29" r="7.875"/>
<circle style="fill:#B23FA7;" cx="275.809" cy="61.29" r="7.251"/>
<g>
	<path style="fill:#F0F2F2;" d="M275.814,49.808c-0.728,0-1.439,0.068-2.129,0.197v2.836h4.256v-2.836
		C277.252,49.876,276.541,49.808,275.814,49.808z"/>
	<path style="fill:#F0F2F2;" d="M273.685,69.684v2.883c0.689,0.129,1.401,0.197,2.129,0.197c0.727,0,1.438-0.068,2.127-0.197v-2.883
		H273.685z"/>
	<path style="fill:#F0F2F2;" d="M284.334,53.594l-2.429,1.477l2.21,3.638l2.438-1.481C286.042,55.876,285.284,54.647,284.334,53.594
		z"/>
	<path style="fill:#F0F2F2;" d="M267.512,63.817l-2.452,1.49c0.506,1.353,1.26,2.584,2.207,3.64l2.456-1.492L267.512,63.817z"/>
	<path style="fill:#F0F2F2;" d="M284.121,63.799l-2.202,3.642l2.458,1.487c0.945-1.058,1.697-2.291,2.199-3.645L284.121,63.799z"/>
	<path style="fill:#F0F2F2;" d="M267.276,53.614c-0.948,1.054-1.703,2.285-2.211,3.637l2.441,1.476l2.203-3.642L267.276,53.614z"/>
</g>
<circle style="fill:#1FAF1B;" cx="303.299" cy="61.29" r="11.478"/>
<circle style="fill:#FFFFFF;" cx="303.299" cy="61.29" r="7.875"/>
<circle style="fill:#1FAF1B;" cx="303.299" cy="61.29" r="7.251"/>
<g>
	<path style="fill:#F0F2F2;" d="M303.301,49.808c-0.728,0-1.439,0.068-2.128,0.197v2.836h4.256v-2.836
		C304.739,49.876,304.028,49.808,303.301,49.808z"/>
	<path style="fill:#F0F2F2;" d="M301.173,69.684v2.883c0.689,0.129,1.4,0.197,2.128,0.197c0.727,0,1.438-0.068,2.127-0.197v-2.883
		H301.173z"/>
	<path style="fill:#F0F2F2;" d="M311.821,53.594l-2.429,1.477l2.211,3.638l2.438-1.481
		C313.529,55.876,312.771,54.647,311.821,53.594z"/>
	<path style="fill:#F0F2F2;" d="M294.999,63.817l-2.452,1.49c0.507,1.353,1.261,2.584,2.207,3.64l2.456-1.492L294.999,63.817z"/>
	<path style="fill:#F0F2F2;" d="M311.608,63.799l-2.203,3.642l2.459,1.487c0.945-1.058,1.696-2.291,2.199-3.645L311.608,63.799z"/>
	<path style="fill:#F0F2F2;" d="M294.764,53.614c-0.948,1.054-1.703,2.285-2.211,3.637l2.441,1.476l2.203-3.642L294.764,53.614z"/>
</g>
<circle style="fill:#4C4C4C;" cx="329.339" cy="61.29" r="11.478"/>
<circle style="fill:#FFFFFF;" cx="329.339" cy="61.29" r="7.875"/>
<circle style="fill:#4C4C4C;" cx="329.339" cy="61.29" r="7.251"/>
<g>
	<path style="fill:#F0F2F2;" d="M329.342,49.808c-0.728,0-1.439,0.068-2.129,0.197v2.836h4.256v-2.836
		C330.779,49.876,330.068,49.808,329.342,49.808z"/>
	<path style="fill:#F0F2F2;" d="M327.213,69.684v2.883c0.689,0.129,1.401,0.197,2.129,0.197c0.727,0,1.438-0.068,2.127-0.197v-2.883
		H327.213z"/>
	<path style="fill:#F0F2F2;" d="M337.861,53.594l-2.429,1.477l2.21,3.638l2.438-1.481C339.569,55.876,338.811,54.647,337.861,53.594
		z"/>
	<path style="fill:#F0F2F2;" d="M321.039,63.817l-2.452,1.49c0.506,1.353,1.26,2.584,2.207,3.64l2.456-1.492L321.039,63.817z"/>
	<path style="fill:#F0F2F2;" d="M337.648,63.799l-2.202,3.642l2.458,1.487c0.945-1.058,1.697-2.291,2.199-3.645L337.648,63.799z"/>
	<path style="fill:#F0F2F2;" d="M320.804,53.614c-0.948,1.054-1.703,2.285-2.211,3.637l2.441,1.476l2.202-3.642L320.804,53.614z"/>
</g>
<g>
	<path style="fill:#FFFFFF;" d="M261.425,344.137h-26.967c-1.788,0-3.236,1.45-3.236,3.237v40.988c0,1.787,1.448,3.235,3.236,3.235
		h26.967c1.785,0,3.234-1.449,3.234-3.235v-40.988C264.659,345.586,263.21,344.137,261.425,344.137z"/>
	<path style="fill:#FFFFFF;" d="M351.64,371.965l-12.523-39.027c-0.545-1.701-2.368-2.639-4.07-2.094l-25.676,8.24
		c-1.703,0.547-2.64,2.368-2.093,4.069l12.522,39.028c0.547,1.699,2.368,2.638,4.069,2.094l25.677-8.242
		C351.248,375.49,352.184,373.668,351.64,371.965z"/>
	<path style="fill:#FFFFFF;" d="M426.859,329.961l-24.883-32.571c-1.085-1.419-3.116-1.69-4.536-0.605l-21.427,16.371
		c-1.421,1.085-1.693,3.115-0.608,4.536l24.885,32.572c1.083,1.418,3.114,1.689,4.535,0.606l21.427-16.375
		C427.673,333.413,427.944,331.382,426.859,329.961z"/>
	<path style="fill:#FFFFFF;" d="M475.021,268.664l-35.149-21.083c-1.534-0.92-3.521-0.421-4.44,1.112l-13.87,23.126
		c-0.919,1.529-0.422,3.518,1.11,4.436l35.149,21.087c1.532,0.916,3.519,0.42,4.439-1.115l13.87-23.125
		C477.05,271.573,476.554,269.586,475.021,268.664z"/>
	<path style="fill:#FFFFFF;" d="M186.788,339.085l-25.676-8.24c-1.703-0.545-3.524,0.394-4.07,2.094l-12.523,39.027
		c-0.545,1.703,0.391,3.524,2.093,4.069l25.677,8.242c1.702,0.544,3.522-0.395,4.07-2.094l12.521-39.028
		C189.428,341.452,188.49,339.632,186.788,339.085z"/>
	<path style="fill:#FFFFFF;" d="M120.146,313.155l-21.427-16.371c-1.42-1.085-3.451-0.813-4.537,0.605l-24.883,32.572
		c-1.085,1.421-0.814,3.452,0.608,4.533l21.427,16.375c1.42,1.083,3.452,0.813,4.535-0.606l24.884-32.572
		C121.838,316.268,121.566,314.24,120.146,313.155z"/>
	<path style="fill:#FFFFFF;" d="M74.597,271.819l-13.87-23.126c-0.92-1.533-2.907-2.032-4.44-1.112l-35.149,21.083
		c-1.532,0.922-2.029,2.909-1.109,4.438l13.87,23.125c0.921,1.535,2.909,2.031,4.44,1.115l35.149-21.087
		C75.019,275.336,75.517,273.348,74.597,271.819z"/>
</g>
<path style="fill:#DDDBDB;" d="M392.932,283.547l-25.219-33.994c-1.1-1.481-3.193-1.792-4.675-0.693l-22.364,16.592
	c-1.483,1.1-1.794,3.192-0.694,4.674l25.22,33.995c1.101,1.481,3.193,1.793,4.675,0.693l22.364-16.592
	C393.721,287.121,394.032,285.029,392.932,283.547z"/>
<g>
	<path style="fill:#D61E1E;" d="M373.31,271.762c-0.005,0.001-0.012,0.003-0.018,0.003c0.002-0.005,0.005-0.011,0.009-0.017
		l-0.027,0.019c-5.676,0.906-13.265-3.667-13.265-3.667s1.877,8.514-0.383,13.793l-0.023,0.017c0.004-0.002,0.011-0.002,0.017-0.003
		c-0.002,0.004-0.004,0.011-0.006,0.016l0.022-0.016c5.707-0.632,13.31,3.632,13.31,3.632s-2.175-8.589,0.339-13.758L373.31,271.762
		z"/>
	<path style="fill:#D61E1E;" d="M349.09,271.845c-0.001,0-0.003,0-0.004,0c0.001,0,0-0.001,0-0.002l-0.004,0.002
		c-1.188,0.19-2.775-0.766-2.775-0.766s0.393,1.781-0.082,2.885l-0.004,0.003c0.001,0,0.003,0,0.003,0
		c-0.001,0.001-0.001,0.002-0.002,0.003l0.006-0.003c1.193-0.132,2.784,0.76,2.784,0.76s-0.455-1.797,0.07-2.878L349.09,271.845z"/>
	<path style="fill:#D61E1E;" d="M346.534,268.52l-1.701,1.257l-0.01-0.014l0.16-0.652c0.227-1.065,0.322-2.067-0.241-2.826
		c-0.598-0.809-1.589-0.995-2.612-0.239c-0.601,0.445-0.979,1.045-1.124,1.547l0.85,0.527c0.106-0.349,0.303-0.792,0.688-1.077
		c0.52-0.383,0.948-0.251,1.218,0.115c0.383,0.531,0.278,1.387-0.056,3.002l-0.191,0.942l0.47,0.636l3.186-2.354L346.534,268.52z"/>
	<path style="fill:#D61E1E;" d="M386.653,279.427c-0.002,0.001-0.002,0.001-0.003,0c0.001,0,0.001-0.001,0.002-0.002l-0.007,0.003
		c-1.193,0.133-2.783-0.759-2.783-0.759s0.456,1.796-0.071,2.876l-0.005,0.005c0,0,0.002,0,0.003-0.001c0,0.002,0,0.002,0,0.004
		l0.004-0.004c1.188-0.189,2.775,0.767,2.775,0.767s-0.391-1.781,0.082-2.885L386.653,279.427z"/>
	<path style="fill:#D61E1E;" d="M390.884,285.426c-0.107,0.346-0.303,0.791-0.69,1.077c-0.518,0.383-0.946,0.251-1.217-0.115
		c-0.38-0.531-0.278-1.387,0.057-3.002l0.191-0.942l-0.47-0.637l-3.186,2.355l0.639,0.864l1.7-1.257l0.01,0.014l-0.16,0.653
		c-0.227,1.065-0.321,2.064,0.24,2.825c0.597,0.809,1.59,0.994,2.613,0.238c0.601-0.445,0.979-1.045,1.122-1.546L390.884,285.426z"
		/>
</g>
<path style="fill:#FFFFFF;" d="M385.01,271.168l-27.654-32.044c-1.207-1.397-3.316-1.552-4.714-0.347l-21.081,18.193
	c-1.398,1.207-1.553,3.317-0.347,4.714l27.654,32.045c1.207,1.396,3.317,1.551,4.714,0.345l21.081-18.194
	C386.059,274.674,386.216,272.564,385.01,271.168z"/>
<g>
	<path style="fill:#D61E1E;" d="M364.548,260.88l0.025-0.021c-0.006,0.001-0.013,0.002-0.018,0.004
		c0.001-0.005,0.003-0.011,0.006-0.016l-0.025,0.02c-5.594,1.323-13.499-2.68-13.499-2.68s2.499,8.352,0.634,13.783l-0.021,0.02
		c0.004-0.002,0.01-0.002,0.017-0.005c-0.003,0.006-0.005,0.012-0.005,0.017l0.021-0.018c5.645-1.05,13.542,2.642,13.542,2.642
		S362.422,266.221,364.548,260.88z"/>
	<path style="fill:#D61E1E;" d="M338.415,259.339c-0.122,0.09-0.241,0.134-0.354,0.131c-0.148-0.004-0.415-0.097-0.798-0.279
		l-4.036-1.921l-0.054,0.045l1.251,4.18c0.12,0.399,0.176,0.682,0.168,0.849c-0.007,0.167-0.07,0.32-0.188,0.458l0.088,0.103
		l1.257-1.085l-0.09-0.103c-0.209,0.155-0.353,0.239-0.428,0.253c-0.128,0.023-0.238-0.018-0.33-0.124
		c-0.069-0.079-0.131-0.203-0.185-0.371l-0.158-0.504l1.335-1.152l0.606,0.298c0.158,0.077,0.246,0.124,0.265,0.135
		c0.041,0.027,0.077,0.058,0.105,0.091c0.047,0.056,0.065,0.115,0.049,0.181c-0.023,0.092-0.108,0.2-0.257,0.327l-0.074,0.065
		l0.089,0.103l1.827-1.576L338.415,259.339z M334.478,260.681l-0.544-1.802l1.686,0.815L334.478,260.681z"/>
	<path style="fill:#D61E1E;" d="M340.419,262.732l0.006-0.005c0,0.001-0.003,0.001-0.004,0.001c0.001-0.001,0.001-0.002,0.001-0.003
		l-0.004,0.004c-1.17,0.276-2.825-0.561-2.825-0.561s0.523,1.748,0.133,2.884l-0.004,0.002c0.001,0,0.002,0,0.003,0
		c0,0.001-0.001,0.002-0.002,0.002l0.005-0.003c1.18-0.219,2.833,0.552,2.833,0.552S339.975,263.849,340.419,262.732z"/>
	<path style="fill:#D61E1E;" d="M381.489,271.036c-0.122-0.398-0.177-0.681-0.168-0.849c0.007-0.169,0.069-0.32,0.188-0.458
		l-0.088-0.103l-1.257,1.084l0.089,0.103c0.209-0.155,0.353-0.24,0.428-0.253c0.129-0.024,0.239,0.018,0.33,0.125
		c0.069,0.079,0.131,0.202,0.185,0.369l0.158,0.506l-1.334,1.151l-0.607-0.297c-0.157-0.078-0.246-0.125-0.264-0.138
		c-0.041-0.025-0.077-0.056-0.105-0.088c-0.048-0.056-0.065-0.117-0.05-0.181c0.024-0.093,0.109-0.203,0.257-0.329l0.075-0.064
		l-0.089-0.104l-1.827,1.578l0.088,0.103c0.123-0.089,0.242-0.133,0.354-0.13c0.151,0.005,0.417,0.098,0.799,0.277l4.036,1.923
		l0.054-0.046L381.489,271.036z M380.291,272.839l1.141-0.987l0.544,1.801L380.291,272.839z"/>
	<path style="fill:#D61E1E;" d="M378.44,267.527l0.005-0.004h-0.004c0,0,0.001-0.001,0.001-0.003l-0.005,0.003
		c-1.181,0.221-2.832-0.552-2.832-0.552s0.586,1.759,0.141,2.875l-0.004,0.003h0.003v0.004l0.004-0.004
		c1.17-0.276,2.823,0.561,2.823,0.561S378.05,268.663,378.44,267.527z"/>
</g>
<circle style="fill:#4C4C4C;" cx="400.799" cy="323.21" r="11.478"/>
<circle style="fill:#FFFFFF;" cx="400.789" cy="323.21" r="7.875"/>
<circle style="fill:#4C4C4C;" cx="400.789" cy="323.21" r="7.251"/>
<g>
	<path style="fill:#F0F2F2;" d="M400.795,311.734c-0.728,0-1.439,0.068-2.129,0.197v2.836h4.256v-2.836
		C402.233,311.802,401.521,311.734,400.795,311.734z"/>
	<path style="fill:#F0F2F2;" d="M398.666,331.609v2.883c0.69,0.129,1.401,0.198,2.129,0.198c0.727,0,1.438-0.068,2.127-0.198v-2.883
		H398.666z"/>
	<path style="fill:#F0F2F2;" d="M409.314,315.521l-2.429,1.476l2.211,3.638l2.438-1.481
		C411.022,317.802,410.265,316.573,409.314,315.521z"/>
	<path style="fill:#F0F2F2;" d="M392.493,325.743l-2.452,1.49c0.506,1.354,1.26,2.584,2.208,3.641l2.455-1.493L392.493,325.743z"/>
	<path style="fill:#F0F2F2;" d="M409.101,325.725l-2.202,3.643l2.458,1.487c0.945-1.057,1.696-2.291,2.199-3.645L409.101,325.725z"
		/>
	<path style="fill:#F0F2F2;" d="M392.257,315.54c-0.948,1.054-1.703,2.285-2.211,3.637l2.441,1.477l2.202-3.643L392.257,315.54z"/>
</g>
<circle style="fill:#3E60B5;" cx="330.249" cy="359.079" r="11.478"/>
<circle style="fill:#FFFFFF;" cx="330.249" cy="359.079" r="7.875"/>
<circle style="fill:#3E60B5;" cx="330.249" cy="359.079" r="7.251"/>
<g>
	<path style="fill:#F0F2F2;" d="M330.246,347.6c-0.728,0-1.439,0.068-2.129,0.197v2.836h4.256v-2.836
		C331.683,347.668,330.973,347.6,330.246,347.6z"/>
	<path style="fill:#F0F2F2;" d="M328.117,367.477v2.883c0.69,0.129,1.401,0.198,2.129,0.198c0.727,0,1.438-0.068,2.127-0.198v-2.883
		H328.117z"/>
	<path style="fill:#F0F2F2;" d="M338.766,351.388l-2.429,1.476l2.211,3.638l2.438-1.481
		C340.474,353.669,339.716,352.439,338.766,351.388z"/>
	<path style="fill:#F0F2F2;" d="M321.943,361.611l-2.452,1.49c0.506,1.353,1.26,2.584,2.207,3.64l2.456-1.493L321.943,361.611z"/>
	<path style="fill:#F0F2F2;" d="M338.553,361.592l-2.203,3.642l2.459,1.487c0.944-1.057,1.696-2.291,2.199-3.645L338.553,361.592z"
		/>
	<path style="fill:#F0F2F2;" d="M321.708,351.408c-0.949,1.054-1.704,2.285-2.211,3.637l2.441,1.476l2.202-3.643L321.708,351.408z"
		/>
</g>
<path style="fill:#DDDBDB;" d="M337.139,320.738l-14.237-38.956c-0.621-1.698-2.5-2.572-4.199-1.951l-25.628,9.366
	c-1.699,0.62-2.572,2.501-1.951,4.2l14.236,38.956c0.621,1.698,2.501,2.571,4.199,1.951l25.629-9.365
	C336.886,324.318,337.76,322.438,337.139,320.738z"/>
<g>
	<path style="fill:#3A3A3A;" d="M298.851,298.789c0.467-0.171,0.707-0.687,0.537-1.154c-0.17-0.466-0.688-0.706-1.154-0.536
		c-0.225,0.083-0.396,0.245-0.496,0.444l-0.092-0.074c0.194-0.238,0.263-0.569,0.15-0.879c-0.17-0.466-0.687-0.706-1.153-0.536
		c-0.467,0.17-0.708,0.687-0.538,1.154c0.115,0.312,0.382,0.521,0.687,0.576l-0.021,0.106c-0.202-0.085-0.435-0.098-0.656-0.017
		c-0.466,0.17-0.706,0.687-0.536,1.154c0.171,0.467,0.687,0.707,1.154,0.536c0.383-0.14,0.612-0.513,0.589-0.9l0.159-0.058
		c0.33,0.958-0.13,1.714-0.13,1.714l1.507-0.55c0,0-0.839-0.282-1.204-1.226l0.169-0.063
		C298.053,298.792,298.469,298.928,298.851,298.789z"/>
	<polygon style="fill:#3A3A3A;" points="293.959,290.434 293.066,290.758 292.037,291.777 292.511,292.526 293.244,291.784 
		293.258,291.78 294.592,295.458 295.642,295.077 	"/>
	<path style="fill:#3A3A3A;" d="M298.817,291.276c-0.461-1.272-1.355-2.201-2.591-1.752c-1.2,0.435-1.381,1.697-0.892,3.047
		c0.483,1.312,1.403,2.199,2.603,1.764C299.117,293.908,299.335,292.704,298.817,291.276z M297.661,293.504
		c-0.414,0.15-0.855-0.263-1.241-1.328c-0.394-1.086-0.304-1.685,0.089-1.827c0.436-0.158,0.854,0.305,1.227,1.333
		C298.12,292.741,298.083,293.353,297.661,293.504z"/>
	<path style="fill:#3A3A3A;" d="M332.031,315.935c0.467-0.17,0.707-0.687,0.536-1.154c-0.17-0.467-0.687-0.707-1.153-0.536
		c-0.384,0.139-0.613,0.512-0.59,0.9l-0.159,0.059c-0.329-0.958,0.13-1.714,0.13-1.714l-1.506,0.551c0,0,0.839,0.281,1.204,1.226
		l-0.169,0.062c-0.231-0.312-0.648-0.448-1.03-0.309c-0.467,0.171-0.707,0.688-0.536,1.154c0.17,0.467,0.687,0.707,1.154,0.536
		c0.225-0.083,0.396-0.245,0.496-0.443l0.092,0.073c-0.194,0.238-0.262,0.569-0.15,0.879c0.171,0.467,0.687,0.707,1.154,0.536
		c0.467-0.17,0.707-0.688,0.536-1.154c-0.113-0.311-0.381-0.521-0.685-0.575l0.021-0.106
		C331.577,316.004,331.809,316.017,332.031,315.935z"/>
	<polygon style="fill:#3A3A3A;" points="335.914,320.576 335.182,321.319 335.167,321.323 333.833,317.643 332.783,318.025 
		334.466,322.668 335.359,322.345 336.389,321.326 	"/>
	<path style="fill:#3A3A3A;" d="M333.027,320.556c-0.484-1.312-1.403-2.199-2.604-1.764c-1.179,0.427-1.397,1.629-0.879,3.059
		c0.461,1.271,1.355,2.2,2.591,1.752C333.335,323.168,333.517,321.905,333.027,320.556z M331.851,322.776
		c-0.436,0.158-0.854-0.305-1.227-1.333c-0.383-1.058-0.346-1.669,0.075-1.821c0.414-0.151,0.855,0.263,1.241,1.328
		C332.335,322.035,332.245,322.633,331.851,322.776z"/>
	<path style="fill:#3A3A3A;" d="M311.524,319.866c0.963-0.353,1.459-1.419,1.107-2.381c-0.352-0.963-1.417-1.458-2.381-1.107
		c-0.789,0.289-1.264,1.059-1.215,1.857l-0.327,0.12c-0.681-1.976,0.268-3.537,0.268-3.537l-3.108,1.136c0,0,1.73,0.582,2.484,2.53
		l-0.349,0.127c-0.477-0.642-1.336-0.925-2.126-0.636c-0.962,0.352-1.458,1.418-1.106,2.381c0.352,0.962,1.418,1.458,2.381,1.106
		c0.464-0.169,0.818-0.506,1.023-0.915l0.19,0.151c-0.401,0.491-0.543,1.174-0.309,1.813c0.352,0.963,1.417,1.458,2.381,1.106
		c0.963-0.352,1.458-1.417,1.107-2.381c-0.235-0.642-0.788-1.074-1.415-1.188l0.043-0.218
		C310.587,320.008,311.067,320.034,311.524,319.866z"/>
	<path style="fill:#3A3A3A;" d="M327.438,314.26c0.963-0.353,1.459-1.418,1.107-2.381c-0.352-0.964-1.418-1.459-2.382-1.107
		c-0.789,0.289-1.264,1.059-1.215,1.857l-0.327,0.12c-0.681-1.976,0.268-3.536,0.268-3.536l-3.109,1.136c0,0,1.731,0.581,2.485,2.53
		l-0.349,0.128c-0.477-0.643-1.336-0.925-2.126-0.637c-0.963,0.352-1.458,1.418-1.107,2.382c0.353,0.962,1.418,1.458,2.381,1.106
		c0.465-0.169,0.819-0.506,1.023-0.916l0.19,0.151c-0.401,0.491-0.542,1.175-0.309,1.813c0.353,0.963,1.418,1.458,2.381,1.106
		c0.963-0.352,1.458-1.417,1.107-2.381c-0.235-0.642-0.787-1.075-1.415-1.188l0.043-0.218
		C326.5,314.401,326.981,314.426,327.438,314.26z"/>
	<path style="fill:#3A3A3A;" d="M318.035,312.995c0.963-0.353,1.459-1.418,1.107-2.381c-0.352-0.963-1.418-1.458-2.381-1.106
		c-0.79,0.289-1.264,1.059-1.215,1.857l-0.328,0.12c-0.681-1.976,0.268-3.536,0.268-3.536l-3.109,1.136c0,0,1.731,0.581,2.485,2.53
		l-0.349,0.127c-0.477-0.642-1.336-0.925-2.126-0.636c-0.963,0.352-1.458,1.418-1.107,2.382c0.353,0.962,1.418,1.458,2.381,1.106
		c0.465-0.169,0.819-0.506,1.023-0.916l0.19,0.151c-0.401,0.491-0.542,1.175-0.309,1.813c0.352,0.963,1.417,1.458,2.381,1.106
		c0.963-0.352,1.458-1.417,1.106-2.381c-0.234-0.642-0.787-1.075-1.415-1.188l0.043-0.218
		C317.097,313.135,317.578,313.161,318.035,312.995z"/>
</g>
<path style="fill:#FFFFFF;" d="M331.832,305.1l-13.871-39.684c-0.604-1.73-2.497-2.641-4.228-2.037l-26.106,9.125
	c-1.731,0.604-2.644,2.498-2.038,4.229l13.87,39.683c0.604,1.729,2.498,2.642,4.228,2.037l26.107-9.125
	C331.525,308.724,332.437,306.829,331.832,305.1z"/>
<g>
	<path style="fill:#D61E1E;" d="M292.933,279.319c0,0-1.246-0.513-1.316,1.188c-1.113-1.288-1.77-0.11-1.77-0.11
		c-0.872,1.489,2.585,2.828,2.739,2.887l0.001,0.003c0,0,0.001-0.001,0.002-0.003c0.001,0,0.002,0.001,0.002,0.001l-0.002-0.003
		C292.674,283.142,294.545,279.939,292.933,279.319z"/>
	<path style="fill:#D61E1E;" d="M292.835,276.736l-0.328-0.933l-0.63,0.221l-1.096-3.118l-1.53,0.538l-0.866,3.946l0.285,0.811
		l2.357-0.829l0.446,1.269l1.178-0.415l-0.446-1.268L292.835,276.736z M289.496,276.861l0.002-0.02l0.296-1.409
		c0.062-0.398,0.1-0.761,0.151-1.166l0.024-0.008c0.104,0.35,0.204,0.682,0.316,1.001l0.414,1.179L289.496,276.861z"/>
	<path style="fill:#D61E1E;" d="M324.69,298l-0.001-0.002c0,0,0,0.001-0.001,0.002c-0.002,0-0.003-0.001-0.003-0.001l0.001,0.003
		c-0.083,0.142-1.954,3.344-0.343,3.965c0,0,1.245,0.511,1.316-1.189c1.116,1.287,1.771,0.11,1.771,0.11
		C328.301,299.398,324.843,298.06,324.69,298z"/>
	<path style="fill:#D61E1E;" d="M329.164,303.202l-2.357,0.829l-0.446-1.269l-1.178,0.415l0.446,1.268L325,304.667l0.327,0.934
		l0.63-0.222l1.096,3.119l1.531-0.539l0.866-3.946L329.164,303.202z M328.336,304.559l-0.295,1.409
		c-0.062,0.399-0.1,0.762-0.151,1.166l-0.024,0.009c-0.105-0.35-0.204-0.682-0.316-1.002l-0.414-1.178l1.204-0.423L328.336,304.559z
		"/>
	<path style="fill:#D61E1E;" d="M301.441,276.501c0,0-2.719-1.119-2.873,2.598c-2.435-2.812-3.864-0.244-3.864-0.244
		c-1.906,3.253,5.643,6.176,5.976,6.303l0.003,0.008c0,0,0.001-0.002,0.004-0.006c0.003,0.001,0.006,0.002,0.006,0.002l-0.003-0.009
		C300.872,284.848,304.958,277.858,301.441,276.501z"/>
	<path style="fill:#D61E1E;" d="M314.642,272.344c0,0-2.719-1.119-2.873,2.598c-2.435-2.812-3.864-0.244-3.864-0.244
		c-1.906,3.252,5.643,6.175,5.976,6.302l0.003,0.009c0,0,0.001-0.002,0.004-0.006c0.003,0.001,0.006,0.002,0.006,0.002l-0.003-0.008
		C314.073,280.688,318.159,273.701,314.642,272.344z"/>
	<path style="fill:#D61E1E;" d="M309.036,298.383c0,0-2.719-1.119-2.873,2.598c-2.434-2.812-3.864-0.243-3.864-0.243
		c-1.906,3.252,5.643,6.175,5.976,6.302l0.003,0.008c0,0,0.001-0.002,0.004-0.006c0.003,0.001,0.005,0.002,0.005,0.002l-0.003-0.008
		C308.467,306.728,312.553,299.74,309.036,298.383z"/>
	<path style="fill:#D61E1E;" d="M322.236,294.224c0,0-2.719-1.118-2.872,2.598c-2.435-2.812-3.864-0.244-3.864-0.244
		c-1.906,3.252,5.643,6.175,5.977,6.303l0.003,0.008c0,0,0.001-0.002,0.004-0.006c0.004,0.001,0.006,0.002,0.006,0.002l-0.003-0.008
		C321.668,302.569,325.753,295.581,322.236,294.224z"/>
</g>
<path style="fill:#DDDBDB;" d="M204.418,279.76l-26.236-7.867c-1.739-0.521-3.571,0.465-4.092,2.205l-11.958,39.879
	c-0.522,1.739,0.465,3.571,2.205,4.093l26.235,7.866c1.74,0.521,3.571-0.465,4.093-2.205l11.958-39.879
	C207.144,282.113,206.158,280.281,204.418,279.76z"/>
<g>
	<path style="fill:#D61E1E;" d="M178.094,282.288l-0.006-0.002c-0.849-0.825-1.028-2.639-1.028-2.639s-1.173,1.357-2.321,1.635
		l-0.005-0.002c0.001,0.001,0.001,0.001,0.001,0.002c-0.001,0-0.001,0-0.002,0.001l0.005,0.001c0.806,0.863,1.039,2.642,1.039,2.642
		s1.148-1.417,2.31-1.637l0.006,0.002c-0.001-0.002-0.001-0.002-0.002-0.004C178.092,282.286,178.093,282.286,178.094,282.288z"/>
	<path style="fill:#D61E1E;" d="M179.883,274.866l0.273-0.91l-2.605-0.781l-1.051,2.391c0.198,0.027,0.385,0.067,0.646,0.146
		c0.947,0.284,1.243,0.698,1.097,1.186c-0.15,0.502-0.704,0.574-1.163,0.437c-0.429-0.128-0.819-0.388-0.993-0.551l-0.453,0.769
		c0.221,0.217,0.662,0.492,1.237,0.665c1.273,0.382,2.264-0.17,2.529-1.051c0.166-0.553,0.065-1.011-0.22-1.359
		c-0.256-0.338-0.69-0.58-1.142-0.715c-0.116-0.035-0.204-0.061-0.31-0.077l0.32-0.697L179.883,274.866z"/>
	<path style="fill:#D61E1E;" d="M191.948,320.096c0.429,0.129,0.82,0.388,0.993,0.552l0.453-0.769
		c-0.221-0.217-0.662-0.493-1.237-0.665c-1.274-0.382-2.265,0.17-2.529,1.051c-0.166,0.553-0.065,1.011,0.219,1.359
		c0.255,0.338,0.691,0.58,1.142,0.715c0.117,0.035,0.204,0.061,0.311,0.077l-0.32,0.697l-1.835-0.55l-0.272,0.91l2.605,0.781
		l1.05-2.39c-0.198-0.027-0.384-0.067-0.646-0.146c-0.946-0.283-1.243-0.698-1.096-1.185
		C190.936,320.03,191.489,319.958,191.948,320.096z"/>
	<path style="fill:#D61E1E;" d="M193.088,314.272l0.001-0.004c0,0-0.001,0-0.002,0.001c-0.001-0.001-0.001-0.002-0.001-0.002
		l-0.001,0.003c-0.136,0.062-3.223,1.465-2.348,2.779c0,0,0.659,1.04,1.61-0.194c0.153,1.55,1.263,1.017,1.263,1.017
		C195.048,317.221,193.172,314.396,193.088,314.272z"/>
	<path style="fill:#D61E1E;" d="M173.529,303.491l0.002-0.009c0,0-0.002,0.001-0.006,0.002c-0.003-0.003-0.004-0.005-0.004-0.005
		l-0.002,0.008c-0.326,0.147-7.695,3.497-5.605,6.635c0,0,1.574,2.482,3.844-0.465c0.366,3.701,3.015,2.429,3.015,2.429
		C178.206,310.53,173.727,303.788,173.529,303.491z"/>
	<path style="fill:#D61E1E;" d="M187.871,307.603l0.002-0.008c0,0-0.001,0.001-0.006,0.002c-0.002-0.003-0.003-0.005-0.003-0.005
		l-0.002,0.009c-0.326,0.147-7.694,3.496-5.605,6.634c0,0,1.575,2.482,3.845-0.464c0.366,3.701,3.016,2.428,3.016,2.428
		C192.549,314.642,188.07,307.9,187.871,307.603z"/>
</g>
<path style="fill:#FFFFFF;" d="M209.261,263.609l-26.236-7.867c-1.74-0.521-3.571,0.465-4.093,2.205l-11.958,39.879
	c-0.522,1.74,0.465,3.572,2.205,4.093l26.235,7.867c1.74,0.521,3.571-0.465,4.093-2.205l11.958-39.879
	C211.987,265.964,211,264.132,209.261,263.609z"/>
<g>
	<path style="fill:#D61E1E;" d="M187.997,270.241l-0.012-0.003c-1.695-1.647-2.053-5.271-2.053-5.271s-2.343,2.711-4.637,3.264
		l-0.011-0.003c0.001,0.001,0.003,0.004,0.004,0.005c-0.002,0-0.004,0.001-0.006,0.002l0.011,0.003
		c1.611,1.725,2.077,5.276,2.077,5.276s2.293-2.827,4.614-3.27l0.012,0.003c-0.001-0.002-0.003-0.004-0.005-0.005
		C187.993,270.241,187.996,270.241,187.997,270.241z"/>
	<path style="fill:#D61E1E;" d="M204.367,275.147l-0.012-0.003c-1.695-1.646-2.054-5.27-2.054-5.27s-2.343,2.71-4.637,3.264
		l-0.011-0.003c0.001,0.001,0.002,0.004,0.003,0.006c-0.001,0-0.004,0-0.006,0.001l0.011,0.003c1.611,1.724,2.076,5.277,2.076,5.277
		s2.293-2.828,4.615-3.271l0.012,0.003c-0.001-0.002-0.003-0.004-0.005-0.005C204.362,275.151,204.364,275.148,204.367,275.147z"/>
	<path style="fill:#D61E1E;" d="M181.726,291.155l-0.012-0.004c-1.695-1.646-2.054-5.27-2.054-5.27s-2.343,2.71-4.637,3.264
		l-0.011-0.004c0.001,0.001,0.002,0.004,0.003,0.006c-0.001,0-0.004,0.001-0.006,0.002l0.012,0.003
		c1.611,1.724,2.076,5.277,2.076,5.277s2.293-2.828,4.615-3.271l0.012,0.004c-0.002-0.002-0.003-0.004-0.005-0.006
		C181.721,291.158,181.724,291.156,181.726,291.155z"/>
	<path style="fill:#D61E1E;" d="M198.095,296.064l-0.012-0.004c-1.695-1.646-2.054-5.27-2.054-5.27s-2.343,2.711-4.637,3.264
		l-0.011-0.003c0.001,0.001,0.003,0.003,0.004,0.005c-0.001,0-0.004,0.001-0.006,0.002l0.011,0.003
		c1.611,1.724,2.076,5.276,2.076,5.276s2.293-2.827,4.614-3.271l0.012,0.004c-0.001-0.002-0.003-0.004-0.005-0.005
		C198.09,296.065,198.093,296.064,198.095,296.064z"/>
	<path style="fill:#D61E1E;" d="M193.079,283.516l-0.012-0.003c-1.695-1.646-2.054-5.27-2.054-5.27s-2.343,2.71-4.637,3.264
		l-0.011-0.003c0.001,0.002,0.003,0.004,0.004,0.006c-0.001,0-0.004,0.001-0.006,0.002l0.011,0.003
		c1.611,1.724,2.076,5.277,2.076,5.277s2.293-2.828,4.614-3.271l0.012,0.003c-0.001-0.002-0.003-0.004-0.005-0.005
		C193.074,283.517,193.077,283.517,193.079,283.516z"/>
	<path style="fill:#D61E1E;" d="M182.936,266.137l-0.006-0.002c-0.849-0.825-1.028-2.639-1.028-2.639s-1.173,1.356-2.321,1.634
		l-0.006-0.001c0.001,0,0.001,0,0.002,0.001c-0.001,0.001-0.001,0.001-0.003,0.002l0.006,0.001c0.806,0.863,1.04,2.641,1.04,2.641
		s1.147-1.417,2.31-1.637l0.006,0.001c0-0.001-0.001-0.002-0.002-0.003C182.935,266.135,182.935,266.137,182.936,266.137z"/>
	<path style="fill:#D61E1E;" d="M184.725,258.715l0.273-0.91l-2.606-0.782l-1.05,2.391c0.198,0.027,0.385,0.067,0.646,0.146
		c0.947,0.284,1.243,0.698,1.097,1.186c-0.151,0.502-0.704,0.574-1.163,0.437c-0.429-0.128-0.819-0.388-0.993-0.551l-0.452,0.768
		c0.221,0.217,0.662,0.493,1.237,0.665c1.274,0.382,2.264-0.17,2.529-1.051c0.166-0.553,0.064-1.012-0.22-1.359
		c-0.255-0.338-0.69-0.58-1.142-0.715c-0.116-0.035-0.204-0.061-0.31-0.077l0.32-0.697L184.725,258.715z"/>
	<path style="fill:#D61E1E;" d="M199.061,300.207l-0.006-0.002c-0.808-0.862-1.04-2.641-1.04-2.641s-1.149,1.415-2.311,1.636
		l-0.006-0.001c0.001,0,0.003,0.001,0.003,0.003c-0.001,0-0.003,0-0.004,0l0.006,0.001c0.848,0.825,1.029,2.64,1.029,2.64
		s1.173-1.358,2.322-1.635l0.005,0.001c-0.001,0-0.002-0.002-0.002-0.002C199.058,300.207,199.06,300.207,199.061,300.207z"/>
	<path style="fill:#D61E1E;" d="M196.79,303.945c0.429,0.128,0.819,0.388,0.993,0.551l0.453-0.769
		c-0.22-0.217-0.662-0.492-1.237-0.664c-1.274-0.382-2.265,0.17-2.528,1.051c-0.166,0.553-0.065,1.011,0.219,1.359
		c0.255,0.338,0.691,0.58,1.142,0.715c0.117,0.035,0.205,0.061,0.311,0.077l-0.32,0.697l-1.835-0.55l-0.272,0.909l2.606,0.782
		l1.05-2.391c-0.198-0.027-0.384-0.068-0.646-0.146c-0.946-0.284-1.243-0.698-1.096-1.186
		C195.779,303.879,196.332,303.807,196.79,303.945z"/>
	<circle style="fill:#D61E1E;" cx="166.949" cy="358" r="11.478"/>
</g>
<circle style="fill:#FFFFFF;" cx="166.949" cy="358" r="7.875"/>
<circle style="fill:#D61E1E;" cx="166.949" cy="358" r="7.251"/>
<g>
	<path style="fill:#F0F2F2;" d="M166.952,346.517c-0.728,0-1.439,0.068-2.128,0.197v2.836h4.255v-2.836
		C168.39,346.583,167.679,346.517,166.952,346.517z"/>
	<path style="fill:#F0F2F2;" d="M164.823,366.392v2.883c0.689,0.129,1.4,0.198,2.128,0.198c0.727,0,1.438-0.068,2.128-0.198v-2.883
		H164.823z"/>
	<path style="fill:#F0F2F2;" d="M175.471,350.302l-2.429,1.476l2.211,3.638l2.438-1.481
		C177.179,352.585,176.422,351.354,175.471,350.302z"/>
	<path style="fill:#F0F2F2;" d="M158.649,360.526l-2.452,1.491c0.506,1.353,1.26,2.584,2.207,3.64l2.456-1.492L158.649,360.526z"/>
	<path style="fill:#F0F2F2;" d="M175.258,360.507l-2.202,3.643l2.458,1.487c0.945-1.057,1.696-2.291,2.199-3.645L175.258,360.507z"
		/>
	<path style="fill:#F0F2F2;" d="M158.414,350.323c-0.948,1.054-1.703,2.285-2.211,3.637l2.441,1.476l2.203-3.642L158.414,350.323z"
		/>
</g>
<g>
</g>
<g>
</g>
<g>
</g>
<g>
</g>
<g>
</g>
<g>
</g>
<g>
</g>
<g>
</g>
<g>
</g>
<g>
</g>
<g>
</g>
<g>
</g>
<g>
</g>
<g>
</g>
<g>
</g>
</svg>
