<?xml version="1.0" encoding="iso-8859-1"?>
<!-- Generator: Adobe Illustrator 19.0.0, SVG Export Plug-In . SVG Version: 6.00 Build 0)  -->
<svg version="1.1" id="Layer_1" xmlns="http://www.w3.org/2000/svg" xmlns:xlink="http://www.w3.org/1999/xlink" x="0px" y="0px"
	 viewBox="0 0 512 512" style="enable-background:new 0 0 512 512;" xml:space="preserve">
<circle style="fill:#4AB8A1;" cx="256" cy="256" r="256"/>
<path style="fill:#E6E6E6;" d="M395.812,420.048c0,8.812-7.144,15.952-15.952,15.952H139.768c-8.812,0-15.952-7.144-15.952-15.952
	V95.956c0-8.812,7.144-15.952,15.952-15.952h240.088c8.812,0,15.952,7.144,15.952,15.952v324.092H395.812z"/>
<g>
	<circle style="fill:#CCCCCC;" cx="259.812" cy="96" r="4"/>
	<path style="fill:#CCCCCC;" d="M283.812,116h-48c-2.212,0-4-1.792-4-4s1.788-4,4-4h48c2.212,0,4,1.792,4,4S286.024,116,283.812,116
		z"/>
</g>
<g>
	<path style="fill:#E6E6E6;" d="M343.812,84h-28c-2.212,0-4-1.792-4-4s1.788-4,4-4h28c2.212,0,4,1.792,4,4S346.024,84,343.812,84z"
		/>
	<path style="fill:#E6E6E6;" d="M123.812,148c-2.212,0-4-1.788-4-4v-20c0-2.208,1.788-4,4-4s4,1.792,4,4v20
		C127.812,146.212,126.024,148,123.812,148z"/>
	<path style="fill:#E6E6E6;" d="M123.812,188c-2.212,0-4-1.788-4-4v-8c0-2.212,1.788-4,4-4s4,1.788,4,4v8
		C127.812,186.212,126.024,188,123.812,188z"/>
	<path style="fill:#E6E6E6;" d="M123.812,216c-2.212,0-4-1.788-4-4v-8c0-2.212,1.788-4,4-4s4,1.788,4,4v8
		C127.812,214.212,126.024,216,123.812,216z"/>
</g>
<rect x="151.812" y="128" style="fill:#395F73;" width="220" height="232"/>
<rect x="159.812" y="136" style="fill:#F5F5F5;" width="204" height="216"/>
<g>
	<rect x="215.812" y="136" style="fill:#406A80;" width="148" height="36"/>
	<rect x="159.812" y="172" style="fill:#406A80;" width="56" height="180"/>
	<path style="fill:#406A80;" d="M324,200h-88c-4.416,0-8-3.584-8-8s3.584-8,8-8h88c4.416,0,8,3.584,8,8S328.416,200,324,200z"/>
	<path style="fill:#406A80;" d="M256,228h-20c-2.212,0-4-1.788-4-4s1.788-4,4-4h20c2.212,0,4,1.788,4,4S258.212,228,256,228z"/>
	<path style="fill:#406A80;" d="M324,328h-36c-2.212,0-4-1.788-4-4s1.788-4,4-4h36c2.212,0,4,1.788,4,4S326.212,328,324,328z"/>
	<path style="fill:#406A80;" d="M324,344h-36c-2.212,0-4-1.788-4-4s1.788-4,4-4h36c2.212,0,4,1.788,4,4S326.212,344,324,344z"/>
	<path style="fill:#406A80;" d="M328,244h-92c-2.212,0-4-1.788-4-4s1.788-4,4-4h92c2.212,0,4,1.788,4,4S330.212,244,328,244z"/>
	<path style="fill:#406A80;" d="M328,260h-92c-2.212,0-4-1.788-4-4s1.788-4,4-4h92c2.212,0,4,1.788,4,4S330.212,260,328,260z"/>
	<path style="fill:#406A80;" d="M328,276h-92c-2.212,0-4-1.788-4-4s1.788-4,4-4h92c2.212,0,4,1.788,4,4S330.212,276,328,276z"/>
	<path style="fill:#406A80;" d="M328,292h-92c-2.212,0-4-1.788-4-4s1.788-4,4-4h92c2.212,0,4,1.788,4,4S330.212,292,328,292z"/>
	<path style="fill:#406A80;" d="M328,308h-92c-2.212,0-4-1.788-4-4s1.788-4,4-4h92c2.212,0,4,1.788,4,4S330.212,308,328,308z"/>
	<path style="fill:#406A80;" d="M192,152h-12c-2.212,0-4-1.788-4-4s1.788-4,4-4h12c2.212,0,4,1.788,4,4S194.212,152,192,152z"/>
	<path style="fill:#406A80;" d="M192,164h-12c-2.212,0-4-1.788-4-4s1.788-4,4-4h12c2.212,0,4,1.788,4,4S194.212,164,192,164z"/>
</g>
<path style="fill:#F5F5F5;" d="M259.812,380c-8.824,0-16,7.176-16,16s7.176,16,16,16s16-7.176,16-16S268.636,380,259.812,380z"/>
<g>
</g>
<g>
</g>
<g>
</g>
<g>
</g>
<g>
</g>
<g>
</g>
<g>
</g>
<g>
</g>
<g>
</g>
<g>
</g>
<g>
</g>
<g>
</g>
<g>
</g>
<g>
</g>
<g>
</g>
</svg>
